# xmcd
#
# Track frame offsets:
#	150
#	26306
#	55173
#	81707
#	102947
#	111214
#	133896
#	155731
#
# Disc length: 2280
#
# Revision: 1
# Processed by: cddbd v1.5.1PL0 Copyright (c) Steve Scherf et al.
# Submitted via: CDex 1.51
# Normalized: r0:TRMNUM
#
DISCID=6b08e608
DTITLE=Cephalectomy - ECLIPSING THE DAWN
DYEAR=2004
DGENRE=Death Metal
TTITLE0=Of Grievance and Exhumation...(The Fallen)
TTITLE1=Espousing the Lore of Ancient Mythos
TTITLE2=Discerning thee Apocryphal Divinity
TTITLE3=Invocate the Tempests to Castigation
TTITLE4=The Squalid Eyes of Impending Treachery
TTITLE5=The Ghosts of Reprisal and Strife
TTITLE6=Dragons upon the Mountains of Mashu
TTITLE7=The Sundering of Eternal Sentience
EXTD=YEAR: 2004
EXTT0=
EXTT1=
EXTT2=
EXTT3=
EXTT4=
EXTT5=
EXTT6=
EXTT7=
PLAYORDER=
